<svg version="1.1" id="Layer_1" xmlns="http://www.w3.org/2000/svg" xmlns:xlink="http://www.w3.org/1999/xlink" x="0px" y="0px"
	 width="100%" viewBox="0 0 416 400" enable-background="new 0 0 416 400" xml:space="preserve">
<path fill="#000000" opacity="1.000000" stroke="none" 
	d="
M391.556000,162.641342 
	C404.378113,217.888809 395.314667,269.074463 363.644104,315.404358 
	C333.740601,359.149353 292.038849,386.386688 239.419937,394.163879 
	C163.447586,405.392761 101.923958,379.013123 55.710522,318.086700 
	C37.336124,293.862427 26.501366,265.884369 22.586123,235.517334 
	C14.393755,171.976410 32.964314,117.379463 78.339661,72.289696 
	C107.801613,43.013187 143.837402,26.124186 184.895905,21.004255 
	C280.896179,9.033183 367.714722,69.709274 391.368011,161.743149 
	C391.409302,161.903732 391.420471,162.072052 391.556000,162.641342 
M129.266785,343.381927 
	C130.636398,350.791626 133.096832,357.816620 136.405396,364.590393 
	C137.808685,367.463409 139.762558,369.332062 142.729874,370.532928 
	C175.077438,383.624115 208.585754,386.989868 242.610931,380.215759 
	C334.617676,361.897980 396.205566,273.825378 381.438416,181.531021 
	C372.972595,128.619766 345.388489,87.743774 300.105225,58.938133 
	C298.510254,57.923542 296.925964,56.683716 294.738831,57.215702 
	C294.989014,59.921135 296.388062,61.858116 297.308197,63.976643 
	C305.340637,82.470551 308.552521,101.610878 303.520111,121.383919 
	C296.950470,147.197128 281.904022,167.446945 259.978790,182.136322 
	C236.461548,197.892303 212.313232,212.706207 188.442566,227.934769 
	C172.159988,238.322418 157.535675,250.466766 146.305511,266.445740 
	C130.103088,289.499512 123.820274,314.687683 129.266785,343.381927 
M55.700222,292.827515 
	C58.051945,296.541931 59.821030,300.668335 63.052387,303.842133 
	C64.546692,302.481079 64.476768,300.952454 64.716064,299.488007 
	C68.034325,279.180634 75.074913,260.273926 86.197258,242.935791 
	C89.023918,238.529434 93.210426,237.134811 96.732635,239.176483 
	C100.535278,241.380676 101.541008,245.720261 98.742180,250.035690 
	C86.529488,268.866180 80.027237,289.595764 77.474358,311.764740 
	C76.303383,321.933350 79.635559,329.571503 87.667000,332.720215 
	C87.667000,330.098175 87.669182,327.640930 87.666656,325.183685 
	C87.645424,304.544189 92.016945,284.863159 101.092857,266.343903 
	C117.859993,232.130844 143.234161,205.508453 174.298477,183.937225 
	C188.470734,174.095917 203.731964,166.344086 219.568268,159.636475 
	C223.715500,157.879868 227.120621,158.766846 229.333725,162.805328 
	C231.277328,166.352081 229.875687,169.969513 225.693588,172.347916 
	C223.817200,173.415054 221.813370,174.269363 219.831100,175.137436 
	C185.758057,190.058426 156.839111,211.804611 133.867767,241.082733 
	C112.689873,268.075043 99.701416,298.008606 102.236870,333.315002 
	C103.211395,346.885223 107.049774,353.270782 118.426476,357.322540 
	C118.487770,357.174805 118.628281,357.007965 118.597977,356.882324 
	C118.327339,355.759644 118.047951,354.638092 117.731506,353.527557 
	C112.705193,335.888062 112.234482,318.091919 116.298233,300.243958 
	C123.789558,267.342102 143.314926,242.805115 170.317780,223.678665 
	C192.358673,208.066803 215.603622,194.311996 238.487946,180.002563 
	C250.218582,172.667480 261.894928,165.271362 270.872040,154.381943 
	C283.138977,139.501923 292.312866,123.124115 292.436188,103.422310 
	C292.575592,81.155464 283.577728,62.025887 269.262024,45.310959 
	C267.021210,42.694626 263.848846,41.376415 260.041046,41.788113 
	C260.208649,42.647778 260.185669,43.192825 260.415527,43.592400 
	C261.328186,45.178982 262.326843,46.715874 263.281219,48.278751 
	C274.208954,66.173691 279.477234,85.730209 280.121735,106.571182 
	C280.300415,112.350418 277.596954,115.226654 272.811584,115.318031 
	C267.959595,115.410683 265.818665,112.757790 265.674744,106.646896 
	C265.059631,80.524841 255.649124,58.170959 237.705307,39.083889 
	C232.696548,33.756031 227.124374,34.352844 221.154129,33.837818 
	C221.186401,36.055573 222.605240,36.893970 223.521973,38.005768 
	C240.011932,58.004528 249.705902,80.575310 250.684128,106.797897 
	C251.514740,129.063599 234.214035,148.937683 211.904160,150.174942 
	C207.917313,150.396042 204.501633,151.522629 201.045151,153.292465 
	C174.193268,167.041504 150.863541,185.356140 130.382019,207.418869 
	C126.349754,211.762436 122.513786,212.286560 119.069397,209.289856 
	C115.766541,206.416290 115.982315,202.226257 119.668755,197.823593 
	C120.203461,197.184998 120.756081,196.559906 121.325829,195.952408 
	C138.869965,177.246201 158.431152,161.036133 180.574982,148.009445 
	C182.353775,146.963013 184.686676,146.441574 185.289520,143.816086 
	C182.255829,139.947769 178.938278,138.844131 174.063553,140.990219 
	C112.705246,168.003082 73.448265,214.248032 54.207561,278.064789 
	C52.717106,283.008301 51.710220,287.734772 55.700222,292.827515 
M62.557888,173.075394 
	C67.175354,167.817093 71.689026,162.463181 76.428658,157.317383 
	C94.761559,137.413452 115.087898,120.163010 140.235016,109.252037 
	C146.489120,106.538475 152.650513,103.506760 158.287247,99.603836 
	C164.140671,95.550858 164.558121,93.012848 160.505020,87.256027 
	C152.511017,75.901756 142.270935,66.986900 130.474548,59.783245 
	C122.882668,55.147137 117.945854,56.195503 111.961922,63.705456 
	C112.257797,65.019104 113.454865,65.409691 114.415382,66.010223 
	C131.923355,76.956589 132.414139,97.281754 115.355957,108.854889 
	C112.199097,110.996666 108.745277,112.721680 105.349335,114.486702 
	C84.708633,125.214607 67.210205,139.619034 51.489601,156.880020 
	C36.411747,173.435287 32.280708,192.142288 34.978180,214.681137 
	C43.425323,199.733887 51.673046,185.936920 62.557888,173.075394 
M54.624958,236.239960 
	C70.546661,203.377228 93.179359,176.029465 122.365601,154.131912 
	C135.870514,143.999573 150.241272,135.298584 165.872757,128.765930 
	C167.549072,128.065384 170.652008,127.699791 169.951675,125.230637 
	C168.765106,121.047188 168.470932,116.470558 165.929565,112.531532 
	C159.652939,115.680695 153.803589,118.846725 147.764481,121.595963 
	C136.188828,126.865654 125.327309,133.245880 115.178474,140.934891 
	C101.538841,151.268631 89.967545,163.707825 78.613129,176.359619 
	C61.741409,195.159119 49.065289,216.571991 39.655209,239.968414 
	C36.335617,248.221954 40.802631,255.043991 43.203468,262.304749 
	C47.119865,253.735413 50.219498,245.117340 54.624958,236.239960 
M235.102310,118.454674 
	C238.375656,108.798088 237.093079,99.784042 231.167160,91.492569 
	C223.746735,81.110054 208.967453,77.306885 197.241531,82.688599 
	C185.419418,88.114471 178.296539,101.848686 181.073929,113.862724 
	C183.924988,126.195480 193.781143,135.479034 205.250198,136.634460 
	C218.346985,137.953888 228.512039,131.939987 235.102310,118.454674 
M67.581261,105.051613 
	C61.212086,114.079842 55.100178,123.247246 51.205036,134.084503 
	C53.814053,134.007187 54.797474,132.515945 55.966412,131.430435 
	C68.989479,119.336906 83.363945,109.208221 99.329643,101.356667 
	C102.763184,99.668129 106.280502,98.066406 109.218430,95.554153 
	C115.339394,90.320053 114.571533,82.645172 107.571014,78.783028 
	C105.823753,77.819077 103.900948,77.149605 102.227051,76.081215 
	C98.502708,73.704109 95.528381,74.546051 92.443634,77.460396 
	C83.583847,85.830780 75.338509,94.733543 67.581261,105.051613 
M161.444153,66.071945 
	C166.264771,71.254387 170.832413,76.660904 175.192169,82.737984 
	C179.138504,78.028198 183.256760,74.674667 187.916824,72.094955 
	C191.204956,70.274704 190.510590,68.409622 188.567291,66.194550 
	C180.883240,57.435848 172.912628,48.966854 163.832214,41.613251 
	C162.675217,40.676285 161.626648,39.524658 159.879242,40.103119 
	C153.156540,42.328587 146.298874,44.213795 139.178757,48.050617 
	C147.525360,53.346512 154.617294,59.003422 161.444153,66.071945 
M191.611877,47.896622 
	C196.389694,52.994270 201.365372,57.947552 204.237167,64.486534 
	C204.847427,65.876083 205.816208,66.666885 207.286148,66.602592 
	C213.805588,66.317429 220.069763,67.627342 226.359375,70.143005 
	C226.430511,67.027206 224.909012,65.166000 223.810303,63.212467 
	C218.964218,54.595848 212.913116,46.907021 205.693451,40.138508 
	C197.975281,32.902664 190.250198,31.729141 180.283615,36.363667 
	C183.902908,40.044518 187.511627,43.714619 191.611877,47.896622 
z"/>
<path fill="#000000" opacity="1.000000" stroke="none" 
	d="
M247.774490,327.456726 
	C239.781830,347.713318 220.373199,356.028198 205.298386,353.850952 
	C182.409622,350.545166 168.257706,336.219910 166.893753,314.654388 
	C165.504547,292.689789 181.366211,271.209351 207.883438,270.385834 
	C231.514984,269.651917 250.866333,289.086121 250.418961,310.918396 
	C250.304855,316.486603 249.699463,321.845673 247.774490,327.456726 
M204.661896,295.607605 
	C202.731888,292.573395 203.213348,288.459625 200.524643,285.796967 
	C195.669388,287.279388 195.487030,287.500702 195.352753,291.869781 
	C194.816772,309.310059 206.851517,323.336670 224.502213,325.843658 
	C233.989609,327.191223 235.793564,325.781647 235.730576,316.624695 
	C221.905197,315.438080 211.283768,309.059631 204.661896,295.607605 
M180.614563,315.829987 
	C185.234024,333.446747 203.020538,346.048584 214.031387,338.659271 
	C197.581726,332.990479 187.323730,321.601990 182.129883,304.659851 
	C180.565384,308.750885 180.047363,311.818909 180.614563,315.829987 
M217.360397,285.876160 
	C217.657639,293.965820 226.364105,301.741974 234.433975,300.642303 
	C231.072266,293.103912 225.601303,288.280151 217.360397,285.876160 
z"/>
<path fill="#000000" opacity="1.000000" stroke="none" 
	d="
M257.400146,131.942093 
	C261.658203,126.880943 266.073517,126.025604 269.539337,129.273193 
	C272.306244,131.865860 272.204926,136.499634 269.385742,139.605545 
	C266.838013,142.412430 263.675629,143.263824 260.355865,141.711258 
	C256.273743,139.802124 256.122955,136.156052 257.400146,131.942093 
z"/>
<path fill="#000000" opacity="1.000000" stroke="none" 
	d="
M105.465469,217.364685 
	C110.994087,215.096710 115.049500,216.494232 116.252197,220.729858 
	C117.491562,225.094620 115.314392,228.994095 111.053848,229.914047 
	C108.153442,230.540283 105.739922,229.529175 104.161758,227.108398 
	C101.984306,223.768372 102.410133,220.524521 105.465469,217.364685 
z"/>
<path fill="#000000" opacity="1.000000" stroke="none" 
	d="
M240.538193,147.391449 
	C243.844269,145.378876 246.834595,145.141083 249.502274,147.638123 
	C251.556625,149.561142 252.312302,152.028122 251.558762,154.847061 
	C250.791443,157.717545 248.844315,159.352020 246.013718,159.813736 
	C243.383133,160.242844 241.057022,159.393204 239.545013,157.137421 
	C237.344696,153.854660 237.604355,150.632355 240.538193,147.391449 
z"/>
</svg>